@startuml

[*] --> ActiveGame: start game

state result <<fork>>
ActiveGame --> result: playTurn

result --> ActiveGame: if 30 turns have not passed\nand if no player won
result --> FinishedByTurns: if there's no winner\nafter 30 turns
result --> FinishedByWinning: if there was\na winner

ActiveGame -> [*]: follow the game
FinishedByTurns --> [*]: the game is over
FinishedByWinning --> [*]: the game is over

@enduml